<?xml version="1.0" encoding="UTF-8" standalone="no"?>
<svg xmlns="http://www.w3.org/2000/svg" width="1200" height="800" viewBox="0 0 1200 800">
  <defs>
    <style>
      .title { font-family: "Segoe UI", Arial, sans-serif; font-size: 20px; font-weight: bold; fill: #0f172a; }
      .actor-label { font-family: "Segoe UI", Arial, sans-serif; font-size: 12px; font-weight: 600; fill: #111827; }
      .actor-box { fill: #f0f9ff; stroke: #0284c7; stroke-width: 2px; rx: 6; }
      .lifeline { stroke: #cbd5e1; stroke-width: 1px; stroke-dasharray: 4,4; }
      .message { stroke: #334155; stroke-width: 2px; marker-end: url(#arrowhead); fill: none; }
      .return { stroke: #334155; stroke-width: 1.5px; marker-end: url(#arrowhead); fill: none; stroke-dasharray: 3,3; }
      .message-label { font-family: "Segoe UI", Arial, sans-serif; font-size: 10px; fill: #111827; font-weight: 500; }
      .description { font-family: "Segoe UI", Arial, sans-serif; font-size: 9px; fill: #64748b; }
      .note-box { fill: #fef3c7; stroke: #d97706; stroke-width: 1px; rx: 4; }
      .note-text { font-family: "Segoe UI", Arial, sans-serif; font-size: 9px; fill: #92400e; }
      .stage-box { fill: #f3e8ff; stroke: #9333ea; stroke-width: 1px; stroke-dasharray: 2,2; rx: 4; }
      .step { font-family: "Segoe UI", Arial, sans-serif; font-size: 11px; fill: #111827; font-weight: bold; }
    </style>
    <marker id="arrowhead" markerWidth="10" markerHeight="10" refX="9" refY="3" orient="auto">
      <polygon points="0 0, 10 3, 0 6" fill="#334155" />
    </marker>
  </defs>

  <!-- Title -->
  <text x="30" y="40" class="title">Login + Scoring Authentication Flow</text>

  <!-- Actor boxes -->
  <rect x="20" y="70" width="140" height="50" class="actor-box" />
  <text x="90" y="95" text-anchor="middle" class="actor-label">User</text>
  <text x="90" y="110" text-anchor="middle" class="description">(Browser)</text>

  <rect x="210" y="70" width="140" height="50" class="actor-box" />
  <text x="280" y="95" text-anchor="middle" class="actor-label">Frontend SPA</text>
  <text x="280" y="110" text-anchor="middle" class="description">(React/Vite)</text>

  <rect x="400" y="70" width="140" height="50" class="actor-box" />
  <text x="470" y="95" text-anchor="middle" class="actor-label">nginx Proxy</text>
  <text x="470" y="110" text-anchor="middle" class="description">(reverse proxy)</text>

  <rect x="590" y="70" width="140" height="50" class="actor-box" />
  <text x="660" y="95" text-anchor="middle" class="actor-label">FastAPI Backend</text>
  <text x="660" y="110" text-anchor="middle" class="description">(Auth module)</text>

  <rect x="780" y="70" width="140" height="50" class="actor-box" />
  <text x="850" y="95" text-anchor="middle" class="actor-label">MongoDB</text>
  <text x="850" y="110" text-anchor="middle" class="description">(persistence)</text>

  <rect x="970" y="70" width="140" height="50" class="actor-box" />
  <text x="1040" y="95" text-anchor="middle" class="actor-label">Biometric Pipeline</text>
  <text x="1040" y="110" text-anchor="middle" class="description">(inference)</text>

  <!-- Lifelines -->
  <line x1="90" y1="120" x2="90" y2="780" class="lifeline" />
  <line x1="280" y1="120" x2="280" y2="780" class="lifeline" />
  <line x1="470" y1="120" x2="470" y2="780" class="lifeline" />
  <line x1="660" y1="120" x2="660" y2="780" class="lifeline" />
  <line x1="850" y1="120" x2="850" y2="780" class="lifeline" />
  <line x1="1040" y1="120" x2="1040" y2="780" class="lifeline" />

  <!-- STEP 1: Load Page -->
  <text x="30" y="160" class="step">1. Load Login Page</text>
  <path d="M 90 180 L 280 200" class="message" />
  <text x="140" y="195" class="message-label">GET /login</text>

  <path d="M 280 210 L 470 230" class="message" />
  <text x="330" y="225" class="message-label">proxy to SPA</text>

  <path d="M 470 240 L 280 260" class="return" />
  <text x="340" y="255" class="message-label">index.html + SDK</text>

  <path d="M 280 270 L 90 290" class="return" />
  <text x="140" y="285" class="message-label">200 OK</text>

  <!-- STEP 2: User Input -->
  <text x="30" y="330" class="step">2. User Enters Credentials</text>
  <rect x="45" y="340" width="450" height="50" class="note-box" />
  <text x="55" y="360" class="note-text">• Email & password typed into form</text>
  <text x="55" y="375" class="note-text">• SDK captures keystroke/pointer biometrics in background</text>

  <!-- STEP 3: Login Request -->
  <text x="30" y="430" class="step">3. Submit Login Credentials</text>
  <path d="M 90 450 L 280 470" class="message" />
  <text x="135" y="465" class="message-label">click submit</text>

  <path d="M 280 480 L 470 500" class="message" />
  <text x="330" y="495" class="message-label">POST /auth/login</text>
  <text x="330" y="508" class="description">{email, password}</text>

  <path d="M 470 520 L 660 540" class="message" />
  <text x="530" y="535" class="message-label">proxy → backend</text>

  <!-- Auth processing -->
  <rect x="680" y="550" width="140" height="40" class="actor-box" />
  <text x="750" y="575" text-anchor="middle" class="note-text">Verify Argon2 hash</text>

  <path d="M 660 600 L 850 620" class="message" />
  <text x="720" y="615" class="message-label">lookup user</text>

  <path d="M 850 630 L 660 650" class="return" />
  <text x="720" y="645" class="message-label">user document</text>

  <!-- Response path -->
  <path d="M 660 670 L 470 690" class="return" />
  <text x="530" y="685" class="message-label">200 {session_token}</text>

  <path d="M 470 700 L 280 720" class="return" />
  <text x="330" y="715" class="message-label">proxy response</text>

  <!-- STEP 4: Score submission (in alt box) -->
  <rect x="30" y="745" width="1050" height="45" class="stage-box" />
  <text x="45" y="765" class="step">4. Submit Biometric Score (POST /score)</text>
  <text x="45" y="780" class="description">→ Stage1 (biometric) → Stage2 (honeypot) → Stage3 (governor) → Stage4 (watchdog)</text>

  <!-- Legend -->
  <text x="30" y="820" class="description" style="font-weight: bold;">Key Points:</text>
  <text x="40" y="835" class="description">• nginx handles all routing and rate-limiting</text>
  <text x="40" y="848" class="description">• Backend verifies credentials against stored Argon2 hash</text>
  <text x="40" y="861" class="description">• Session token returned to frontend on successful login</text>
  <text x="40" y="874" class="description">• Biometric scoring happens after successful authentication (if desired)</text>

</svg>
